HIERARCHY
ROOT hip
{
	OFFSET 0.000000 0.000000 0.000000 
	CHANNELS 6 Xposition Yposition Zposition Xrotation Zrotation Yrotation
	JOINT abdomen
	{
		OFFSET 0.000000 3.402643 0.000000 
		CHANNELS 3 Xrotation Zrotation Yrotation
		JOINT chest
		{
			OFFSET 0.000000 8.438565 -0.680529 
			CHANNELS 3 Xrotation Zrotation Yrotation
			JOINT neck
			{
				OFFSET 0.000000 10.207942 -0.272212 
				CHANNELS 3 Xrotation Zrotation Yrotation
				JOINT head
				{
					OFFSET 0.000000 3.130431 0.000000 
					CHANNELS 3 Xrotation Zrotation Yrotation
					End Site
					{
						OFFSET 0.000000 3.130435 0.000000 
					}
				}
			}
			JOINT lCollar
			{
				OFFSET 3.470700 6.669187 -0.816635 
				CHANNELS 3 Yrotation Zrotation Xrotation
				JOINT lShldr
				{
					OFFSET 3.198488 0.000000 0.000000 
					CHANNELS 3 Zrotation Yrotation Xrotation
					JOINT lForeArm
					{
						OFFSET 10.139888 0.000000 0.000000 
						CHANNELS 3 Yrotation Zrotation Xrotation
						JOINT lHand
						{
							OFFSET 8.370511 0.000000 0.000000 
							CHANNELS 3 Zrotation Yrotation Xrotation
							End Site
							{
								OFFSET 4.083176 0.000000 0.000000 
							}
						}
					}
				}
			}
			JOINT rCollar
			{
				OFFSET -3.470700 6.669187 -0.816635 
				CHANNELS 3 Yrotation Zrotation Xrotation
				JOINT rShldr
				{
					OFFSET -3.198488 0.000000 0.000000 
					CHANNELS 3 Zrotation Yrotation Xrotation
					JOINT rForeArm
					{
						OFFSET -10.139888 0.000000 0.000000 
						CHANNELS 3 Yrotation Zrotation Xrotation
						JOINT rHand
						{
							OFFSET -8.370511 0.000000 0.000000 
							CHANNELS 3 Zrotation Yrotation Xrotation
							End Site
							{
								OFFSET -4.083176 0.000000 0.000000 
							}
						}
					}
				}
			}
		}
	}
	JOINT lThigh
	{
		OFFSET 5.308129 -1.633274 1.361059 
		CHANNELS 3 Xrotation Zrotation Yrotation
		JOINT lShin
		{
			OFFSET -2.041588 -20.007561 0.000000 
			CHANNELS 3 Xrotation Zrotation Yrotation
			JOINT lFoot
			{
				OFFSET 0.000000 -19.190928 -1.224953 
				CHANNELS 3 Xrotation Yrotation Zrotation
				End Site
				{
					OFFSET 0.000000 -2.449906 4.627600 
				}
			}
		}
	}
	JOINT rThigh
	{
		OFFSET -5.308129 -1.633274 1.361059 
		CHANNELS 3 Xrotation Zrotation Yrotation
		JOINT rShin
		{
			OFFSET 2.041588 -20.007561 0.000000 
			CHANNELS 3 Xrotation Zrotation Yrotation
			JOINT rFoot
			{
				OFFSET 0.000000 -19.190928 -1.224953 
				CHANNELS 3 Xrotation Yrotation Zrotation
				End Site
				{
					OFFSET 0.000000 -2.449906 4.627600 
				}
			}
		}
	}
}
MOTION
Frames: 11
Frame Time: 0.033333
-3.668521 50.596512 -0.182824 -0.849027 0.195038 3.037158 0.000000 0.000000 0.000000 -5.424598 0.732271 1.162264 -0.380221 2.186412 1.808305 10.048492 -2.167412 1.299746 -5.221999 -2.287505 -4.439205 -68.145157 8.810695 24.894651 -42.428757 -15.609540 -9.466190 -3.379535 4.348086 -3.533080 8.154875 13.292610 -5.142191 42.291569 46.012905 65.802620 143.743942 -18.927757 11.211504 -6.573245 -1.575736 -3.582716 4.188919 0.381031 3.502844 1.210965 -4.228697 14.242078 -3.725741 -0.070185 2.212600 4.019795 -4.497931 -6.982937 0.527985 4.627588 -8.970201 -3.139824 -0.036182 0.533954 
-3.661162 50.599899 -0.197708 -0.849292 0.185273 3.115281 0.000000 0.000000 0.000000 -5.376484 0.702983 1.152497 -0.371757 2.254844 1.720108 10.595593 -2.440701 1.378199 -5.418329 -2.685440 -4.419825 -67.293518 8.910391 25.039356 -42.799744 -15.678050 -10.027468 -3.712454 4.690643 -3.550706 7.914494 13.281314 -5.083706 41.697319 46.505619 65.419418 143.590881 -18.987968 11.458268 -7.003779 -1.419352 -3.603371 4.288920 0.390534 3.546350 0.927316 -4.231575 14.166933 -3.647794 -0.080943 2.334462 4.026745 -4.504530 -7.003325 0.470304 4.668311 -8.994763 -3.091437 -0.017295 0.467766 
-3.644443 50.600914 -0.209979 -0.673891 0.175513 3.164078 0.000000 0.000000 0.000000 -5.492753 0.761570 1.132972 -0.322152 2.137867 1.573721 10.801349 -2.616545 1.270437 -5.455333 -2.817923 -4.546840 -67.091339 8.992696 25.119219 -42.593437 -15.806606 -10.392770 -3.669379 4.458317 -3.542590 7.900797 13.269931 -5.194414 41.141788 46.716335 64.880531 143.505661 -18.919695 10.549883 -6.885634 -1.126679 -3.611463 4.021984 0.361475 3.472705 1.083303 -4.255429 14.106310 -3.629268 -0.083120 2.322850 3.836991 -4.530378 -6.971544 0.468409 4.656995 -9.132092 -3.061396 -0.032503 0.535346 
-3.638159 50.602985 -0.220875 -0.517644 0.165732 3.349623 0.000000 0.000000 0.000000 -5.601082 0.761587 1.064619 -0.084332 2.020806 1.485518 10.083630 -2.470133 1.231430 -5.633503 -3.126777 -4.653983 -66.781441 9.224415 25.064514 -42.681297 -15.838161 -10.398408 -3.191670 4.300004 -3.534711 8.082886 13.337872 -5.312455 40.727932 46.528328 65.235512 143.684769 -19.073675 11.385012 -7.279578 -1.544698 -3.592489 3.772749 0.341848 3.389165 1.210906 -4.179850 14.008473 -3.709096 -0.076206 2.421469 3.705732 -4.524764 -6.935585 0.479221 4.654870 -9.306123 -3.080770 -0.029232 0.536718 
-3.628340 50.588978 -0.223970 -0.568021 0.136476 3.417983 0.000000 0.000000 0.000000 -5.434351 0.751806 1.132971 -0.288810 2.030559 1.495278 10.688951 -2.216371 1.123717 -5.472114 -3.065953 -4.499279 -66.933243 8.811137 25.004425 -42.365585 -15.844276 -10.716210 -2.782314 5.565296 -3.586519 7.834855 13.479774 -5.129304 40.166389 46.935905 64.719200 143.581879 -19.072248 11.160006 -7.056633 -1.206644 -3.609412 3.801480 0.361278 3.428474 1.258656 -4.192176 14.004814 -3.744831 -0.086969 2.258611 3.754637 -4.515497 -6.952975 0.527716 4.653012 -9.350983 -3.129792 -0.035602 0.544730 
-3.622742 50.593884 -0.223385 -0.579883 0.097468 3.554699 0.000000 0.000000 0.000000 -5.346781 0.742045 1.123206 -0.308944 2.147799 1.397699 10.646086 -2.431181 1.113936 -5.471092 -2.868360 -4.410764 -67.108833 8.785178 24.923412 -42.263344 -15.726758 -9.456346 -3.392020 5.021451 -3.570301 7.740429 13.408694 -5.047925 40.154095 46.891945 64.522263 143.562561 -19.004221 10.969931 -6.914479 -0.981620 -3.618963 3.752446 0.410117 3.416859 1.345495 -4.197280 13.861556 -3.742523 -0.075958 2.263185 3.767977 -4.471616 -6.938102 0.527922 4.680930 -9.487860 -3.149548 -0.039278 0.543249 
-3.618499 50.598038 -0.213498 -0.605928 0.146188 3.642591 0.000000 0.000000 0.000000 -5.270204 0.693237 1.074376 -0.181753 2.157562 1.397700 10.266053 -2.636120 1.221657 -5.432034 -3.170508 -4.353949 -66.805893 8.788363 24.974237 -42.412788 -15.736763 -9.380252 -3.396321 4.933249 -3.565569 7.850981 13.386416 -4.985600 40.123928 46.919586 64.826065 143.600433 -19.074747 11.255524 -7.258928 -1.102930 -3.619992 3.691674 0.361182 3.416166 1.521149 -4.212018 13.711494 -3.784673 -0.073466 2.349127 3.823997 -4.526591 -7.001328 0.488553 4.681601 -9.530027 -3.150604 -0.068792 0.552232 
-3.617095 50.602180 -0.207789 -0.512845 0.224141 3.701220 0.000000 0.000000 0.000000 -5.310776 0.576057 1.142717 -0.249009 2.157534 1.426976 10.470830 -2.362819 1.133460 -5.442421 -3.146589 -4.392709 -66.878220 8.789059 24.938223 -42.390705 -15.718459 -9.330665 -3.331438 5.308575 -3.580068 7.772979 12.951918 -4.977104 40.450951 46.839417 64.373352 143.368683 -18.831289 9.987997 -7.102747 -0.484980 -3.649745 3.620955 0.302749 3.395577 1.493390 -4.258070 13.674685 -3.776768 -0.091468 2.479050 3.749770 -4.599549 -6.990743 0.537765 4.621305 -9.554779 -3.178275 -0.052819 0.601056 
-3.608250 50.604584 -0.207317 -0.484032 0.214386 3.740281 0.000000 0.000000 0.000000 -5.262113 0.527222 1.230596 -0.286167 2.264942 1.407467 10.412354 -2.440961 1.094421 -5.297150 -2.957231 -4.334311 -67.078262 8.571907 25.060984 -42.329720 -15.766132 -9.384358 -3.127079 5.310547 -3.580012 7.601689 12.799972 -4.887053 40.467377 46.924580 63.961212 143.231918 -18.754465 9.820337 -6.757758 -0.216574 -3.652278 3.560596 0.303003 3.380019 1.532208 -4.269563 13.622914 -3.769695 -0.060989 2.491711 3.716178 -4.575066 -6.979684 0.576910 4.599728 -9.609997 -3.226113 -0.038869 0.617431 
-3.607764 50.611469 -0.200455 -0.486371 0.175393 3.808635 0.000000 0.000000 0.000000 -5.221887 0.595572 1.201310 -0.188225 2.245398 1.426982 10.160632 -2.626394 1.182637 -5.311599 -3.163531 -4.315390 -66.852158 8.612782 25.003901 -42.440567 -15.733342 -9.398604 -3.153385 5.260044 -3.579416 7.710940 13.153513 -4.892874 40.309162 47.075912 64.572708 143.364410 -19.050291 11.364379 -7.060693 -0.990863 -3.616442 3.582727 0.371185 3.453883 1.541947 -4.277406 13.544085 -3.721271 -0.046954 2.444305 3.746833 -4.498566 -6.902089 0.538065 4.540995 -9.768638 -3.205056 -0.040413 0.680098 
-3.600044 50.609608 -0.189480 -0.549524 0.107186 3.798839 0.000000 0.000000 0.000000 -5.123622 0.595559 1.259901 -0.164069 2.430887 1.427397 9.972067 -2.997299 1.280610 -5.254115 -2.989496 -4.227750 -67.041183 8.487843 24.931053 -42.378601 -15.684422 -9.338837 -3.190418 5.238678 -3.572311 7.626643 13.045347 -4.780813 40.168327 47.208202 63.985943 143.354691 -18.833530 10.218721 -6.946703 -0.630435 -3.632108 3.687404 0.410128 3.499836 1.473182 -4.262197 13.529858 -3.747678 -0.090971 2.468466 3.816350 -4.441183 -6.844961 0.499056 4.502815 -9.790853 -3.175485 -0.041372 0.690202 
